<?xml version="1.0" encoding="UTF-8" standalone="no"?>
<!-- Created with Inkscape (http://www.inkscape.org/) -->

<svg
   xmlns:dc="http://purl.org/dc/elements/1.1/"
   xmlns:cc="http://creativecommons.org/ns#"
   xmlns:rdf="http://www.w3.org/1999/02/22-rdf-syntax-ns#"
   xmlns:svg="http://www.w3.org/2000/svg"
   xmlns="http://www.w3.org/2000/svg"
   xmlns:sodipodi="http://sodipodi.sourceforge.net/DTD/sodipodi-0.dtd"
   xmlns:inkscape="http://www.inkscape.org/namespaces/inkscape"
   width="520"
   height="520"
   id="svg2"
   sodipodi:version="0.32"
   inkscape:version="0.48.5 r10040"
   version="1.0"
   style="display:inline"
   sodipodi:docname="Icon.svg"
   inkscape:output_extension="org.inkscape.output.svg.inkscape"
   inkscape:export-filename="/Users/saltymule/Projects/ActivWiki/Icon-29.png"
   inkscape:export-xdpi="5.0192308"
   inkscape:export-ydpi="5.0192308">
  <defs
     id="defs4" />
  <sodipodi:namedview
     id="base"
     pagecolor="#ffffff"
     bordercolor="#666666"
     borderopacity="1.0"
     inkscape:pageopacity="0.0"
     inkscape:pageshadow="2"
     inkscape:zoom="1.0829707"
     inkscape:cx="273.13403"
     inkscape:cy="225.34283"
     inkscape:document-units="px"
     inkscape:current-layer="layer2"
     showgrid="false"
     showguides="true"
     inkscape:guide-bbox="true"
     inkscape:window-width="1352"
     inkscape:window-height="853"
     inkscape:window-x="91"
     inkscape:window-y="0"
     inkscape:window-maximized="0" />
  <metadata
     id="metadata7">
    <rdf:RDF>
      <cc:Work
         rdf:about="">
        <dc:format>image/svg+xml</dc:format>
        <dc:type
           rdf:resource="http://purl.org/dc/dcmitype/StillImage" />
        <dc:title></dc:title>
      </cc:Work>
    </rdf:RDF>
  </metadata>
  <g
     inkscape:groupmode="layer"
     id="layer2"
     inkscape:label="BG">
    <rect
       style="fill:#ffffff;fill-opacity:1;stroke:none"
       id="rect3997"
       width="520"
       height="520"
       x="0"
       y="-6.4226402e-14" />
  </g>
  <g
     inkscape:label="Cortex"
     inkscape:groupmode="layer"
     id="layer1"
     style="display:inline"
     transform="translate(-106.83931,-179.64792)">
    <path
       style="fill:#e9e9f8;fill-opacity:1;stroke:#000000;stroke-width:8;stroke-linecap:round;stroke-linejoin:round;stroke-miterlimit:4;stroke-opacity:1;stroke-dasharray:none"
       d="m 185.40359,545.87219 c -15.47637,-5.70581 -28.82898,-16.17531 -38.91893,-29.46851 -6.86234,-7.77437 -16.03075,-14.17039 -17.50895,-25.16286 -2.01966,-6.34818 -6.08446,-14.74444 -3.65854,-19.26635 -12.33249,-6.28666 -6.46757,-22.29704 -3.65643,-32.50729 4.93019,-8.86583 -5.59754,-18.05246 0.60833,-26.43004 8.74498,-3.38118 0.9138,-12.21076 6.29392,-18.48771 3.96268,-6.50875 10.35516,-12.98221 18.45482,-13.83715 -0.824,-10.26681 9.13656,-15.68771 13.13199,-24.24368 8.64909,-7.46729 15.99957,-17.15206 27.98378,-18.92439 10.22586,-5.92071 22.30377,-7.12747 31.9097,-14.33052 9.27953,-6.36383 19.51974,-10.23491 30.65482,-11.78404 14.88449,-2.89631 29.57673,-6.4099 43.2969,-13.04482 24.74251,-4.11825 50.14211,-9.32672 75.18152,-6.16037 10.31225,3.8165 20.62419,-3.64118 31.29418,-2.81156 14.87984,-1.18345 29.48472,4.34257 44.24666,6.03615 12.30331,3.80839 24.80308,8.21523 36.53343,13.33463 5.76223,7.54202 16.94989,4.74775 23.09336,12.11971 9.13805,7.37091 21.65429,12.57971 26.53164,23.62606 0.54771,7.04125 9.96585,9.81982 14.47912,14.70047 12.02163,7.72472 20.14418,19.89261 28.30307,31.20718 1.76924,6.23831 5.50261,13.81492 3.51813,18.89782 11.48334,10.06408 16.59799,25.03771 24.91544,37.54234 1.4717,8.42843 7.67875,16.72615 5.55585,25.25381 6.16276,4.73689 6.84331,13.89891 8.97828,20.88544 -1.24911,10.143 -0.0653,21.12612 -7.70085,29.06378 -3.8374,8.03516 -9.94734,13.80074 -17.87059,17.75535 -7.56533,4.58089 -17.40315,3.77546 -25.48121,0.72141 -19.85287,-6.01701 -40.65279,-5.88488 -60.96121,-9.33207 -11.09705,4.70005 -20.87292,11.9797 -32.89393,14.50019 -11.18702,3.56997 -22.88551,9.549 -34.78631,5.70287 0.29977,10.57572 -12.31217,9.97876 -19.87501,11.38338 -14.45703,2.87358 -29.36734,3.51856 -43.81698,5.32121 -15.95879,8.7062 -33.22455,15.68345 -47.99891,26.16624 -6.29445,7.78783 -16.09093,12.46364 -26.11858,10.01071 -10.96657,-0.77651 -19.68031,-9.3579 -29.76114,-13.33259 -8.6196,-5.53869 -20.18546,-2.02205 -28.07843,-9.4674 -6.478,-3.13239 -11.0867,-9.76687 -14.5944,-15.60975 -4.04741,-5.43686 5.28859,-17.73343 -2.43031,-17.71489 -12.95141,-0.77092 -21.86221,0.47847 -38.85423,-2.31276 z"
       id="path2453"
       sodipodi:nodetypes="cccccccccccccccccccccccccccccccccccccccc"
       inkscape:connector-curvature="0" />
    <path
       style="fill:none;stroke:#000000;stroke-width:4.5;stroke-linecap:round;stroke-linejoin:round;stroke-miterlimit:4;stroke-opacity:1;stroke-dasharray:none"
       d="m 246.51784,567.08539 c 19.40858,-6.94971 24.67452,-29.40502 40.79965,-40.45612 11.96888,-8.24335 25.04705,-21.52574 40.91172,-15.39265 20.36606,6.75063 42.57403,-0.79217 58.50994,-14.11839 11.52686,-10.22187 26.66929,-15.47543 42.02245,-13.25101 17.79547,4.67703 21.76356,-12.83081 27.25213,-25.20911 6.88226,-13.48306 23.24732,-18.60893 26.81366,-34.42875 8.90955,-13.76907 14.54063,-29.36526 17.16623,-45.54387 0.26054,-11.91441 8.00082,-20.90484 15.46245,-29.35394 1.09189,-1.56355 2.05619,-3.22296 2.79277,-4.98478"
       id="path3230"
       inkscape:connector-curvature="0" />
    <path
       style="fill:none;stroke:#000000;stroke-width:3.75;stroke-linecap:round;stroke-linejoin:round;stroke-miterlimit:4;stroke-opacity:1;stroke-dasharray:none"
       d="m 284.90363,593.34937 c 10.6744,-7.36658 20.45918,-16.20614 27.76286,-26.97078 6.29473,-5.7432 15.4462,-4.00716 23.12696,-5.86138 7.17303,-0.167 13.78248,-3.14343 19.63455,-7.10219 5.17585,-4.24139 10.90593,0.57242 15.57309,3.18968 5.24639,3.43046 10.32776,7.12402 15.92796,9.97562"
       id="path3235"
       inkscape:connector-curvature="0" />
    <path
       style="fill:none;stroke:#000000;stroke-width:8;stroke-linecap:round;stroke-linejoin:round;stroke-miterlimit:4;stroke-opacity:1;stroke-dasharray:none"
       d="m 226.81985,548.39758 c 8.78331,-20.2957 17.60534,-41.36924 36.76516,-54.19983 19.89287,-15.41055 43.34945,-33.77375 69.89189,-31.40004 25.97778,9.36548 30.5098,-22.3949 49.0532,-31.48088 16.20452,-9.15081 41.2019,2.62622 51.65547,-17.9367 8.90879,-17.62168 11.60063,-15.66712 16.25271,-21.42277"
       id="path3250"
       sodipodi:nodetypes="cccccc"
       inkscape:connector-curvature="0" />
    <path
       style="fill:none;stroke:#000000;stroke-width:4.5;stroke-linecap:round;stroke-linejoin:round;stroke-miterlimit:4;stroke-opacity:1;stroke-dasharray:none"
       d="m 366.72598,445.8671 c -5.34406,-20.04906 -12.92786,-32.55561 -8.11334,-53.36158 1.76644,-9.97803 13.33468,-30.30641 21.17703,-36.57691 17.18567,-26.56771 17.08208,-20.35982 41.04509,-27.54994"
       id="path3255"
       sodipodi:nodetypes="cccc"
       inkscape:connector-curvature="0" />
    <path
       style="fill:none;stroke:#000000;stroke-width:3.75;stroke-linecap:round;stroke-linejoin:round;stroke-miterlimit:4;stroke-opacity:1;stroke-dasharray:none"
       d="m 493.58863,400.68191 c -6.02021,-21.32608 -27.74238,-15.66064 -35.79764,-35.9602 -5.4561,-8.70526 -10.83476,-34.56767 -16.07337,-43.43053 -10.72281,-5.21641 -19.45444,-15.43335 -20.71916,-27.55385 -0.24479,-0.80786 -0.48958,-1.61572 -0.73439,-2.42358"
       id="path3264"
       sodipodi:nodetypes="ccccc"
       inkscape:connector-curvature="0" />
    <path
       style="fill:none;stroke:#000000;stroke-width:3.75;stroke-linecap:round;stroke-linejoin:round;stroke-miterlimit:4;stroke-opacity:1;stroke-dasharray:none"
       d="m 508.14734,420.10822 c 3.16869,4.69474 6.70261,9.14211 9.64348,13.98986 1.36596,12.94291 5.32862,26.37988 0.97524,39.17877 -2.77242,9.25162 -6.22057,18.71164 -5.28118,28.53199 -3.07335,5.25318 0.52847,13.15459 6.68821,13.85477 5.43656,2.57063 12.91993,3.26265 17.28377,-1.6733 6.65108,-5.72593 15.32383,-9.98554 24.30164,-8.85155 5.50608,-0.28225 10.92016,-5.43814 9.59018,-11.21432 -0.14775,-1.58018 -0.54013,-3.12997 -1.07695,-4.62079"
       id="path3278"
       inkscape:connector-curvature="0" />
    <path
       style="fill:none;stroke:#000000;stroke-width:3.75;stroke-linecap:round;stroke-linejoin:round;stroke-miterlimit:4;stroke-opacity:1;stroke-dasharray:none"
       d="m 537.44177,479.20215 c 13.7417,-2.91692 27.45142,-6.05749 40.9112,-10.10153 3.65082,0.88033 8.08399,0.63686 10.71613,3.78734 4.42062,3.4656 8.71094,7.24749 11.74205,12.03023 5.08451,6.23125 8.87179,13.35219 12.37502,20.55119 l 0.26104,0.50344 0.26104,0.50344"
       id="path3306"
       inkscape:connector-curvature="0" />
    <path
       style="fill:none;stroke:#000000;stroke-width:3.75;stroke-linecap:round;stroke-linejoin:round;stroke-miterlimit:4;stroke-opacity:1;stroke-dasharray:none"
       d="m 577.34277,468.59555 c 2.01634,-6.79877 5.72396,-14.15962 2.75986,-21.25385 -3.5026,-9.45846 -11.07049,-16.5822 -15.61242,-25.44903 -1.76874,-4.61005 -3.76106,-9.65224 -8.33512,-12.16283 -4.34172,-3.06255 -9.78215,-3.46722 -14.86699,-4.13402 -8.22902,-2.27825 -11.93017,-10.77852 -16.97835,-16.80233"
       id="path3308"
       inkscape:connector-curvature="0" />
    <path
       style="fill:none;stroke:#000000;stroke-width:3.75;stroke-linecap:round;stroke-linejoin:round;stroke-miterlimit:4;stroke-opacity:1;stroke-dasharray:none"
       d="m 492.99506,510.51685 c -6.79716,1.71149 -13.39073,4.3512 -20.35752,5.31012 -10.06403,1.05063 -20.17991,1.75928 -30.30026,1.70724 -3.37031,-4.3e-4 -6.35403,-1.87423 -8.51672,-4.34432 -3.39123,-3.74329 -6.1727,-7.9883 -9.5372,-11.75905 -0.83545,-1.0113 -1.67159,-2.02203 -2.50406,-3.03579"
       id="path3329"
       inkscape:connector-curvature="0" />
    <path
       style="fill:none;stroke:#000000;stroke-width:3.75;stroke-linecap:round;stroke-linejoin:round;stroke-miterlimit:4;stroke-opacity:1;stroke-dasharray:none"
       d="m 428.34528,546.88239 c -9.68903,-11.18599 -24.66286,-16.91512 -31.79796,-30.52189 -4.25342,-6.24957 -6.27337,-13.96946 -5.57768,-21.501"
       id="path3335"
       inkscape:connector-curvature="0" />
    <path
       style="fill:none;stroke:#000000;stroke-width:3.75;stroke-linecap:round;stroke-linejoin:round;stroke-miterlimit:4;stroke-opacity:1;stroke-dasharray:none"
       d="m 391.9798,540.82141 c 5.74264,-2.95021 13.02821,-4.18113 16.66751,-10.1015"
       id="path3337"
       inkscape:connector-curvature="0" />
    <path
       style="fill:none;stroke:#000000;stroke-width:3.75;stroke-linecap:round;stroke-linejoin:round;stroke-miterlimit:4;stroke-opacity:1;stroke-dasharray:none"
       d="m 473.29709,463.54477 c 11.27648,3.05949 25.79822,12.54149 15.67345,25.31145 -1.07628,2.1696 -2.42807,4.20805 -4.05671,6.00328"
       id="path3339"
       inkscape:connector-curvature="0" />
    <path
       style="fill:none;stroke:#000000;stroke-width:3.75;stroke-linecap:round;stroke-linejoin:round;stroke-miterlimit:4;stroke-opacity:1;stroke-dasharray:none"
       d="m 491.47983,473.6463 c 4.54568,-2.0203 9.09137,-4.04061 13.63705,-6.06091"
       id="path3341"
       inkscape:connector-curvature="0" />
    <path
       style="fill:none;stroke:#000000;stroke-width:3.75;stroke-linecap:round;stroke-linejoin:round;stroke-miterlimit:4;stroke-opacity:1;stroke-dasharray:none"
       d="m 519.25903,448.89755 c -6.82922,2.63178 -13.56499,5.50451 -20.20306,8.58631"
       id="path3343"
       inkscape:connector-curvature="0" />
    <path
       style="fill:none;stroke:#000000;stroke-width:3.75;stroke-linecap:round;stroke-linejoin:round;stroke-miterlimit:4;stroke-opacity:1;stroke-dasharray:none"
       d="m 500.5712,405.96609 c 10.67182,-10.28494 23.09649,-18.49975 35.63729,-26.3009 2.58334,-4.29499 2.61917,-9.47496 4.26374,-14.10522"
       id="path3347"
       inkscape:connector-curvature="0" />
    <path
       style="fill:none;stroke:#000000;stroke-width:3.75;stroke-linecap:round;stroke-linejoin:round;stroke-miterlimit:4;stroke-opacity:1;stroke-dasharray:none"
       d="m 571.28186,537.28589 c 12.69905,-7.85037 21.83876,-22.55843 18.65715,-37.83272 -0.49726,-3.83075 -1.48773,-7.60267 -2.99974,-11.15965"
       id="path3349"
       inkscape:connector-curvature="0" />
    <path
       style="fill:none;stroke:#000000;stroke-width:3.75;stroke-linecap:round;stroke-linejoin:round;stroke-miterlimit:4;stroke-opacity:1;stroke-dasharray:none"
       d="m 449.5585,478.19199 c 4.23381,3.62524 13.14108,5.25079 11.61676,12.62689"
       id="path3351"
       inkscape:connector-curvature="0" />
    <path
       style="fill:none;stroke:#000000;stroke-width:3.75;stroke-linecap:round;stroke-linejoin:round;stroke-miterlimit:4;stroke-opacity:1;stroke-dasharray:none"
       d="m 461.17526,485.26306 c 2.18866,-1.01015 4.37732,-2.0203 6.56598,-3.03046"
       id="path3353"
       inkscape:connector-curvature="0" />
    <path
       style="fill:none;stroke:#000000;stroke-width:3.75;stroke-linecap:round;stroke-linejoin:round;stroke-miterlimit:4;stroke-opacity:1;stroke-dasharray:none"
       d="M 339.95694,547.38745 C 330.30236,543.9937 319.6137,533.69927 324.80466,522.63867"
       id="path3355"
       inkscape:connector-curvature="0" />
    <path
       style="fill:none;stroke:#000000;stroke-width:3.75;stroke-linecap:round;stroke-linejoin:round;stroke-miterlimit:4;stroke-opacity:1;stroke-dasharray:none"
       d="m 464.20571,546.37728 -7.07107,-8.08122"
       id="path3357"
       inkscape:connector-curvature="0" />
    <path
       id="path3345"
       style="fill:none;stroke:#000000;stroke-width:3.75;stroke-linecap:round;stroke-linejoin:round;stroke-miterlimit:4;stroke-opacity:1;stroke-dasharray:none"
       d="m 558.65497,453.44324 c 9.4e-4,-9.44923 -0.16206,-32.73669 -15.15228,-26.76902 -10.74711,4.86235 -12.16172,20.30476 -21.2132,21.71827"
       sodipodi:nodetypes="ccc"
       inkscape:connector-curvature="0" />
    <path
       style="fill:none;stroke:#000000;stroke-width:3.75;stroke-linecap:round;stroke-linejoin:round;stroke-miterlimit:4;stroke-opacity:1;stroke-dasharray:none"
       d="m 561.18035,412.02699 1.51523,-13.63706 -3.53554,-12.6269 -2.52538,-10.10153"
       id="path3361"
       inkscape:connector-curvature="0" />
    <path
       style="fill:none;stroke:#000000;stroke-width:3.75;stroke-linecap:round;stroke-linejoin:round;stroke-miterlimit:4;stroke-opacity:1;stroke-dasharray:none"
       d="m 582.39355,451.42294 c 3.36717,-2.35702 6.73434,-4.71405 10.10151,-7.07107"
       id="path3363"
       inkscape:connector-curvature="0" />
    <path
       style="fill:none;stroke:#000000;stroke-width:3.75;stroke-linecap:butt;stroke-linejoin:miter;stroke-miterlimit:4;stroke-opacity:1;stroke-dasharray:none;display:inline"
       d="m 226.81985,479.20215 c -5.64778,-2.4496 -11.57205,-5.86669 -13.79985,-11.97306 -2.37172,-5.04295 -2.10724,-12.05846 -7.62951,-15.04102 -3.78386,-4.00476 -11.00285,-4.80478 -12.45379,-10.83026 -0.31585,-6.37853 -1.4461,-13.72872 -7.16422,-17.60612 -4.35746,-3.05532 -7.60423,-8.94917 -13.61614,-8.63465 -5.39622,0.10715 -10.56202,6.13613 -15.80301,3.19004 -6.10376,-4.05617 -8.93333,-11.18161 -12.24042,-17.41169 -2.37325,-5.34425 -3.03848,-11.9914 0.49436,-17.0053 0.47543,-0.8863 0.95975,-1.76829 1.40037,-2.67274"
       id="path3572"
       inkscape:connector-curvature="0" />
    <path
       style="fill:none;stroke:#000000;stroke-width:3.75;stroke-linecap:butt;stroke-linejoin:miter;stroke-miterlimit:4;stroke-opacity:1;stroke-dasharray:none;display:inline"
       d="m 186.91882,504.96106 c -3.19881,-3.87226 -6.39763,-7.74453 -9.59645,-11.61679 -0.67343,-3.03046 -1.34686,-6.06091 -2.02029,-9.09137 1.22116,-6.11146 3.32061,-12.17072 7.07805,-17.19908 0.97897,-2.39828 -0.61654,-5.65427 -3.30699,-5.90674 -2.53063,0.46169 -5.25817,1.6761 -7.76,0.44896 -5.05015,-1.15869 -10.00147,-3.85128 -12.83846,-8.31358 -0.4305,-0.47205 -0.87824,-0.92919 -1.35536,-1.35445"
       id="path3702"
       inkscape:connector-curvature="0" />
    <path
       style="fill:none;stroke:#000000;stroke-width:3.75;stroke-linecap:butt;stroke-linejoin:miter;stroke-miterlimit:4;stroke-opacity:1;stroke-dasharray:none;display:inline"
       d="m 167.72594,436.77573 c -4.04061,-0.67344 -8.08123,-1.34687 -12.12184,-2.0203 -3.03045,1.34688 -6.06091,2.69375 -9.09137,4.04062 -1.17575,3.04909 -3.98812,5.8495 -3.16655,9.36355 0.63723,6.56495 1.25805,13.70026 5.65008,18.98317 3.86779,4.31303 6.82786,9.37494 9.05786,14.70115 1.5452,2.57118 1.85524,5.74872 1.10379,8.62257 -0.0188,0.28535 -0.0268,0.57157 -0.0183,0.85748"
       id="path3762"
       inkscape:connector-curvature="0" />
    <path
       style="fill:none;stroke:#000000;stroke-width:3.75;stroke-linecap:butt;stroke-linejoin:miter;stroke-miterlimit:4;stroke-opacity:1;stroke-dasharray:none;display:inline"
       d="m 219.24371,333.74017 c -3.60423,2.88628 -7.29447,6.49814 -12.21126,6.60335 -6.74943,1.4692 -12.41424,5.77267 -17.35219,10.38979 -6.02219,3.61216 -13.57053,2.19398 -19.76271,5.28452 -4.5085,2.76275 -8.35805,8.22685 -6.64086,13.69456 1.18557,3.18708 4.73456,5.03226 5.17634,8.58409 0.70364,3.43812 2.68401,6.59842 6.04565,7.91851 0.47217,0.30609 0.92462,0.64953 1.30846,1.06327"
       id="path3826"
       inkscape:connector-curvature="0" />
    <path
       style="fill:none;stroke:#000000;stroke-width:3.75;stroke-linecap:butt;stroke-linejoin:miter;stroke-miterlimit:4;stroke-opacity:1;stroke-dasharray:none;display:inline"
       d="m 294.50009,354.4483 c 2.70089,-2.7302 5.46062,-5.40215 8.12487,-8.16856 2.82105,-5.72106 5.60822,-11.48673 9.19949,-16.77616 1.20567,-2.08014 2.45122,-4.24522 4.53471,-5.57353 2.6468,-2.11745 5.29362,-4.23488 7.94043,-6.35232"
       id="path3565"
       inkscape:connector-curvature="0" />
    <path
       style="fill:none;stroke:#000000;stroke-width:3.75;stroke-linecap:butt;stroke-linejoin:miter;stroke-miterlimit:4;stroke-opacity:1;stroke-dasharray:none;display:inline"
       d="m 192.47467,492.33411 c 12.21675,-1.80766 24.45701,-3.63518 36.80593,-4.22305 2.4539,-0.10141 5.01246,-0.14945 7.22077,-1.36682 2.49703,-0.9988 4.99406,-1.99761 7.49108,-2.99641"
       id="path3689"
       inkscape:connector-curvature="0" />
    <path
       style="fill:none;stroke:#000000;stroke-width:3.75;stroke-linecap:butt;stroke-linejoin:miter;stroke-miterlimit:4;stroke-opacity:1;stroke-dasharray:none"
       d="m 339.45187,418.59299 0,0 c 2.0203,25.75889 3.53553,26.76904 3.53553,26.76904"
       id="path4136"
       inkscape:connector-curvature="0" />
    <path
       style="fill:none;stroke:#000000;stroke-width:3.75;stroke-linecap:butt;stroke-linejoin:miter;stroke-miterlimit:4;stroke-opacity:1;stroke-dasharray:none"
       d="m 287.93409,394.34932 c 9.09137,19.1929 4.04061,24.24367 4.04061,24.24367"
       id="path4138"
       inkscape:connector-curvature="0" />
    <path
       style="fill:none;stroke:#000000;stroke-width:3.75;stroke-linecap:butt;stroke-linejoin:miter;stroke-miterlimit:4;stroke-opacity:1;stroke-dasharray:none"
       d="m 402.04543,345.32103 c 17.17259,14.64721 13.13198,30.80965 13.13198,30.80965"
       id="path4140"
       inkscape:connector-curvature="0" />
    <path
       style="fill:none;stroke:#000000;stroke-width:3.75;stroke-linecap:butt;stroke-linejoin:miter;stroke-miterlimit:4;stroke-opacity:1;stroke-dasharray:none"
       d="m 390.50047,394.19087 c 1.99927,24.61132 33.52937,28.47861 33.52937,28.47861"
       id="path4142"
       sodipodi:nodetypes="cc"
       inkscape:connector-curvature="0" />
    <path
       style="fill:none;stroke:#000000;stroke-width:3.75;stroke-linecap:butt;stroke-linejoin:miter;stroke-miterlimit:4;stroke-opacity:1;stroke-dasharray:none"
       d="m 172.7767,531.22499 c 15.15228,-17.17259 40.4061,-1.01015 40.4061,-1.01015"
       id="path4144"
       inkscape:connector-curvature="0" />
    <path
       style="fill:none;stroke:#000000;stroke-width:3.75;stroke-linecap:butt;stroke-linejoin:miter;stroke-miterlimit:4;stroke-opacity:1;stroke-dasharray:none;display:inline"
       d="m 323.79449,510.01178 c -8.47797,-7.98855 -9.76718,-21.71647 -4.54568,-31.81979"
       id="path3419"
       inkscape:connector-curvature="0" />
    <path
       style="fill:none;stroke:#000000;stroke-width:3.75;stroke-linecap:butt;stroke-linejoin:miter;stroke-miterlimit:4;stroke-opacity:1;stroke-dasharray:none;display:inline"
       d="m 352.58386,463.54477 c -2.89303,9.19446 -8.3842,17.4675 -10.14889,27.03314 -1.05855,1.97533 -3.11406,3.08489 -4.49832,4.78668"
       id="path3421"
       inkscape:connector-curvature="0" />
    <path
       style="fill:none;stroke:#000000;stroke-width:3.75;stroke-linecap:butt;stroke-linejoin:miter;stroke-miterlimit:4;stroke-opacity:1;stroke-dasharray:none;display:inline"
       d="m 392.48486,457.98892 c 7.39631,1.53264 14.97114,4.26438 22.58891,2.54872 7.64079,1.06674 9.47998,-8.12588 12.26137,-13.15532"
       id="path3423"
       inkscape:connector-curvature="0" />
    <path
       style="fill:none;stroke:#000000;stroke-width:3.75;stroke-linecap:butt;stroke-linejoin:miter;stroke-miterlimit:4;stroke-opacity:1;stroke-dasharray:none;display:inline"
       d="m 430.87067,433.74527 c 7.8701,1.66863 16.33958,4.00682 24.18078,0.94447 6.56285,-0.26698 12.31914,3.39902 18.24564,5.62154"
       id="path3425"
       inkscape:connector-curvature="0" />
    <path
       style="fill:none;stroke:#000000;stroke-width:3.75;stroke-linecap:butt;stroke-linejoin:miter;stroke-miterlimit:4;stroke-opacity:1;stroke-dasharray:none;display:inline"
       d="m 463.70062,352.93307 c 3.87225,-0.33672 7.74451,-0.67344 11.61676,-1.01016 5.6065,-4.04239 11.32004,-7.93863 17.17261,-11.61676"
       id="path3427"
       inkscape:connector-curvature="0" />
    <path
       style="fill:none;stroke:#000000;stroke-width:3.75;stroke-linecap:butt;stroke-linejoin:miter;stroke-miterlimit:4;stroke-opacity:1;stroke-dasharray:none;display:inline"
       d="m 513.70319,344.85184 c -6.87864,-7.90938 -17.12059,-11.42807 -26.76437,-14.65858 -7.37474,-3.05254 -16.28529,-4.23331 -23.53098,-0.18865 -2.77474,1.39342 -5.41749,3.05311 -8.29352,4.24063"
       id="path3429"
       inkscape:connector-curvature="0" />
    <path
       style="fill:none;stroke:#000000;stroke-width:3.75;stroke-linecap:butt;stroke-linejoin:miter;stroke-miterlimit:4;stroke-opacity:1;stroke-dasharray:none;display:inline"
       d="m 473.80215,327.17419 c -1.21785,-3.29373 0.85831,-7.34829 4.22295,-8.32372 2.55548,-1.8148 4.43743,-4.38746 6.88872,-6.32349"
       id="path3431"
       inkscape:connector-curvature="0" />
    <path
       style="fill:none;stroke:#000000;stroke-width:3.75;stroke-linecap:butt;stroke-linejoin:miter;stroke-miterlimit:4;stroke-opacity:1;stroke-dasharray:none;display:inline"
       d="m 394.50519,295.85944 c 7.48841,1.75054 12.45811,15.34259 1.63946,15.75925 -9.20433,1.6321 -18.72142,3.0458 -26.59297,8.51165 -6.31136,3.97534 -15.41501,9.12624 -13.88371,17.94994 4.3876,6.29475 0.66667,12.35042 -6.43625,13.81215 -7.06476,5.37012 -9.66096,14.37052 -11.829,22.75539 -3.71494,7.27745 -6.53589,16.40682 -13.68887,20.85324 -9.75855,3.82129 -7.46351,14.85586 -4.60959,22.29824 0.25603,9.64001 -10.11739,12.64206 -14.11505,19.68608 -1.55288,7.9671 -7.89515,12.16979 -13.63112,17.02696 -6.60973,4.86634 -1.19979,12.05084 3.79884,15.54724 0.75983,0.56772 1.55285,1.09098 2.37359,1.5664"
       id="path3433"
       inkscape:connector-curvature="0" />
    <path
       style="fill:none;stroke:#000000;stroke-width:4.5;stroke-linecap:butt;stroke-linejoin:miter;stroke-miterlimit:4;stroke-opacity:1;stroke-dasharray:none;display:inline"
       d="m 358.13968,296.8696 c -10.56438,1.77902 -14.54666,13.28171 -16.311,22.47543 -6.40272,6.45616 -8.75405,15.97623 -8.76329,24.11814 -5.23985,5.81871 -16.2259,10.17069 -13.51551,19.75777 1.49454,11.85452 -14.12281,11.47977 -22.12872,13.18412 -8.4536,-0.13086 -20.27868,-2.79548 -24.89584,6.62756 -4.65711,9.74642 -0.003,20.63527 -1.21603,30.88611 -1.72956,15.24056 -11.5177,28.24043 -12.95743,43.60356 -1.5145,10.88869 -0.68174,21.94848 0.79288,32.79152"
       id="path3438"
       inkscape:connector-curvature="0" />
    <path
       style="fill:none;stroke:#000000;stroke-width:3.75;stroke-linecap:butt;stroke-linejoin:miter;stroke-miterlimit:4;stroke-opacity:1;stroke-dasharray:none;display:inline"
       d="m 252.07367,467.58539 c -1.3066,-10.79557 -3.51472,-21.85352 -1.05854,-32.65623 0.69974,-6.15207 0.13356,-12.37222 -0.8993,-18.45314 -1.38936,-4.11898 -4.5325,-7.28188 -6.62846,-11.01502"
       id="path3446"
       inkscape:connector-curvature="0" />
    <path
       style="fill:none;stroke:#000000;stroke-width:3.75;stroke-linecap:butt;stroke-linejoin:miter;stroke-miterlimit:4;stroke-opacity:1;stroke-dasharray:none;display:inline"
       d="m 320.76404,299.90005 c -0.47339,4.34553 -5.42317,5.53608 -9.06741,5.78255 -10.07073,1.06112 -19.34081,5.53221 -29.07625,8.02998 -6.74586,2.35837 -12.96963,5.91935 -19.43502,8.9159 -3.19882,5.05077 -6.39764,10.10154 -9.59646,15.15231 -0.0697,4.21753 0.80277,9.74694 5.46477,11.19195 4.70226,1.97775 9.23439,4.32818 13.88296,6.42443 4.95353,4.3944 7.23946,10.8192 10.66732,16.31994 0.77487,1.48059 1.53975,2.96637 2.30984,4.44945"
       id="path3490"
       inkscape:connector-curvature="0" />
    <path
       style="fill:none;stroke:#000000;stroke-width:3.75;stroke-linecap:butt;stroke-linejoin:miter;stroke-miterlimit:4;stroke-opacity:1;stroke-dasharray:none;display:inline"
       d="m 270.25641,386.2681 c -3.35656,-2.2488 -7.10325,-4.57849 -11.31791,-4.2088 -4.0806,-0.45038 -8.14763,0.54849 -11.86592,2.16708 -5.04699,1.55756 -10.03167,3.50847 -14.34253,6.61348 -3.0771,1.7262 -5.67506,4.13753 -7.95536,6.80044 -2.44747,2.36116 -4.73561,5.03199 -5.73,8.34945 -0.85125,2.51667 -2.72592,4.89885 -2.18641,7.66046 0.0961,3.74666 0.11612,7.69248 2.06036,11.03165 1.11851,2.68442 2.23703,5.36883 3.35553,8.05325"
       id="path3502"
       inkscape:connector-curvature="0" />
    <path
       style="fill:none;stroke:#000000;stroke-width:3.75;stroke-linecap:butt;stroke-linejoin:miter;stroke-miterlimit:4;stroke-opacity:1;stroke-dasharray:none;display:inline"
       d="m 215.20309,413.03714 c -4.94726,0.90583 -11.31532,-1.43222 -12.37634,-6.84923 -2.94579,-5.14946 -1.73887,-12.51539 -7.10168,-16.2292 -6.02819,-1.18937 -9.94906,-7.87261 -8.34103,-13.74924 1.22956,-7.30646 8.34062,-11.1287 13.97304,-14.837 9.35734,-5.6951 19.99995,-9.15552 28.73497,-15.88938 4.61938,-4.0163 -0.2001,-10.24223 2.01524,-14.87965 3.35497,-5.05288 9.98754,-5.38502 15.07516,-7.73712 5.29018,-2.04286 11.47701,-3.31397 16.74979,-0.50909 l 0.76835,0.27125"
       id="path3509"
       inkscape:connector-curvature="0" />
    <path
       style="fill:none;stroke:#000000;stroke-width:3.75;stroke-linecap:butt;stroke-linejoin:miter;stroke-miterlimit:4;stroke-opacity:1;stroke-dasharray:none;display:inline"
       d="m 241.32965,343.63248 c -0.65976,4.58186 -7.10834,8.43869 -8.43583,14.4558 2.25194,10.49087 -1.94636,11.10291 -12.33462,11.08523 -3.95683,1.11768 -5.8701,5.20815 -7.0899,8.78933 -1.32521,3.81712 -1.7801,7.85653 -2.30681,11.84081"
       id="path3522"
       sodipodi:nodetypes="ccccc"
       inkscape:connector-curvature="0" />
    <path
       style="fill:none;stroke:#000000;stroke-width:3.75;stroke-linecap:butt;stroke-linejoin:miter;stroke-miterlimit:4;stroke-opacity:1;stroke-dasharray:none;display:inline"
       d="m 268.74118,352.42798 c 0.19252,-4.68211 1.29244,-9.44759 4.96491,-12.64621 2.31451,-2.42948 3.9353,-5.44991 4.07819,-8.83072 l 0.039,-0.19501 0.009,-0.0463"
       id="path3580"
       inkscape:connector-curvature="0" />
  </g>
</svg>
